<svg width="40" height="40" viewBox="0 0 40 40" fill="none" xmlns="http://www.w3.org/2000/svg">
<path d="M27.5796 17.5741C27.356 17.7641 27.1548 17.9989 26.9089 18.1442C24.8071 19.3404 22.6942 20.5142 20.5925 21.7104C20.1788 21.9452 19.8323 21.9452 19.4186 21.7104C17.2945 20.5031 15.1705 19.3069 13.0352 18.1219C12.6104 17.8871 12.4203 17.5741 12.4315 17.0822C12.4427 14.6674 12.4427 12.2415 12.4315 9.82671C12.4315 9.36836 12.5992 9.06651 13.0016 8.84292C15.1593 7.64672 17.3057 6.42817 19.4522 5.20961C19.8435 4.98602 20.1788 4.9972 20.5589 5.20961C22.6942 6.41699 24.8407 7.61319 26.9759 8.83174C27.1995 8.9659 27.3784 9.18949 27.5796 9.36836C27.5796 12.0961 27.5796 14.8351 27.5796 17.5741ZM14.0413 10.9894C14.019 11.09 14.0078 11.1235 14.0078 11.1682C14.0078 12.9793 13.9966 14.7904 14.019 16.6126C14.019 16.7468 14.1643 16.9368 14.2985 17.0151C15.7406 17.8424 17.2051 18.6585 18.6584 19.4746C18.8261 19.564 18.9938 19.6646 19.2286 19.7876C19.2286 19.5975 19.2286 19.4746 19.2286 19.3516C19.2286 18.0771 19.2286 16.8027 19.2286 15.5282C19.2286 14.9916 19.3851 14.3544 19.1503 13.9407C18.9267 13.5495 18.2895 13.3818 17.8312 13.1246C16.5791 12.4092 15.327 11.716 14.0413 10.9894ZM20.7937 19.7317C20.8831 19.7093 20.9167 19.7093 20.9502 19.687C22.5601 18.7814 24.1811 17.8759 25.7797 16.9592C25.8915 16.8921 25.981 16.6685 25.981 16.5232C25.9921 14.8016 25.9921 13.0799 25.9921 11.3583C25.9921 11.2465 25.981 11.1459 25.9586 10.9894C24.2481 11.9508 22.5936 12.8787 20.939 13.8178C20.8608 13.8625 20.7825 13.9966 20.7825 14.0973C20.7937 15.9642 20.7937 17.8312 20.7937 19.7317ZM14.8574 9.63666C16.5455 10.5869 18.2001 11.526 19.8658 12.4427C19.9664 12.4986 20.1677 12.4427 20.2795 12.3756C21.7999 11.526 23.3203 10.6763 24.8407 9.81553C24.9301 9.75964 25.0195 9.69256 25.1537 9.6143C23.4544 8.66405 21.8222 7.73616 20.1677 6.81945C20.067 6.76355 19.8658 6.80827 19.7428 6.87534C18.2001 7.72498 16.6797 8.59698 15.1481 9.45779C15.0587 9.50251 14.9692 9.55841 14.8574 9.63666Z" fill="white"/>
<path d="M15.9195 29.8043C16.512 30.4751 17.0598 31.1123 17.6188 31.7384C18.1554 32.3532 18.2113 32.9234 17.7641 33.3258C17.3058 33.7507 16.7468 33.6277 16.1766 32.9905C15.5618 32.2973 14.9581 31.6042 14.3432 30.9111C14.2426 30.7993 14.1308 30.6875 13.9407 30.4863C13.9407 31.2241 13.9407 31.8502 13.9407 32.4874C13.9296 33.1693 13.583 33.5718 13.0129 33.583C12.4315 33.5942 12.0402 33.1582 12.0402 32.4762C12.0402 30.0279 12.0291 27.5684 12.0402 25.1201C12.0402 24.4046 12.4203 24.0357 13.1358 24.0245C13.8401 24.0134 14.5333 23.991 15.2376 24.0357C16.6462 24.1252 17.8424 25.176 18.0436 26.4728C18.2672 27.8591 17.5629 29.0888 16.199 29.6813C16.1207 29.7149 16.0425 29.7484 15.9195 29.8043ZM13.9631 28.038C14.4438 28.0044 14.891 28.0268 15.327 27.9485C15.8413 27.8591 16.1543 27.4455 16.1543 26.9871C16.1543 26.5287 15.8524 26.1039 15.3382 26.0145C14.9022 25.9362 14.4438 25.9586 13.9631 25.9251C13.9631 26.6405 13.9631 27.2889 13.9631 28.038Z" fill="white"/>
<path d="M27.9821 32.5321C27.9821 33.0464 27.7026 33.4265 27.2889 33.5383C26.8641 33.6612 26.4058 33.4712 26.1934 33.0576C26.0368 32.7334 25.9027 32.3868 25.7909 32.0402C25.7126 31.7943 25.5897 31.6825 25.3214 31.6937C24.4494 31.7048 23.5662 31.6825 22.6942 31.716C22.5377 31.716 22.3365 31.8837 22.2582 32.0291C22.1017 32.3197 22.0234 32.6551 21.8893 32.9569C21.6657 33.4712 21.1738 33.706 20.6819 33.5271C20.1788 33.3482 19.9105 32.8228 20.1118 32.2862C21.062 29.7708 22.0123 27.2554 22.9737 24.7512C23.1526 24.2929 23.5103 24.0358 24.0022 24.0246C24.5164 24.0134 24.8965 24.2705 25.0754 24.7512C26.0257 27.2443 26.9647 29.7484 27.9038 32.2526C27.9485 32.3533 27.9709 32.4762 27.9821 32.5321ZM24.0134 27.3449C23.6892 28.2169 23.4097 28.9659 23.119 29.7373C23.7562 29.7373 24.3152 29.7373 24.9189 29.7373C24.6171 28.9435 24.3376 28.2057 24.0134 27.3449Z" fill="white"/>
<path d="M1.83343 4.3488C1.83343 2.96255 2.96255 1.83343 4.3488 1.83343H9.10006V0H4.3488C1.94522 0 0 1.94522 0 4.3488V9.10006H1.83343V4.3488Z" fill="white"/>
<path d="M35.6512 1.83343C37.0374 1.83343 38.1665 2.96255 38.1665 4.3488V9.10006H40V4.3488C40 1.9564 38.0547 0 35.6512 0H30.8999V1.83343H35.6512Z" fill="white"/>
<path d="M4.3488 38.1666C2.96255 38.1666 1.83343 37.0375 1.83343 35.6512V30.9H0V35.6512C0 38.0436 1.94522 40 4.3488 40H9.10006V38.1666H4.3488Z" fill="white"/>
<path d="M38.1665 35.6512C38.1665 37.0375 37.0374 38.1666 35.6512 38.1666H30.8999V40H35.6512C38.0436 40 40 38.0548 40 35.6512V30.9H38.1665V35.6512Z" fill="white"/>
</svg>
