<svg width="30" height="30" viewBox="0 0 30 30" fill="none" xmlns="http://www.w3.org/2000/svg">
<g clip-path="url(#clip0)">
<path d="M15.005 30.01C23.292 30.01 30.01 23.292 30.01 15.005C30.01 6.71797 23.292 0 15.005 0C6.71797 0 0 6.71797 0 15.005C0 23.292 6.71797 30.01 15.005 30.01Z" fill="black"/>
<path d="M20.9709 13.1131C20.7907 13.2632 20.6406 13.4534 20.4404 13.5635C18.7887 14.5045 17.1271 15.4354 15.4654 16.3764C15.1451 16.5565 14.8648 16.5665 14.5345 16.3764C12.8628 15.4254 11.1811 14.4845 9.49946 13.5435C9.15912 13.3533 9.01898 13.1131 9.01898 12.7227C9.02899 10.8208 9.02899 8.90889 9.01898 7.00699C9.01898 6.64663 9.15912 6.40639 9.46943 6.23622C11.1711 5.28527 12.8628 4.33432 14.5545 3.37336C14.8548 3.20319 15.1251 3.20319 15.4254 3.37336C17.1071 4.32431 18.7988 5.26525 20.4804 6.22621C20.6606 6.32631 20.8008 6.50649 20.9509 6.64663C20.9709 8.79878 20.9709 10.9509 20.9709 13.1131ZM10.3103 7.92791C10.3003 8.00799 10.2903 8.03802 10.2903 8.06805C10.2903 9.49948 10.2802 10.9209 10.3003 12.3523C10.3003 12.4624 10.4104 12.6126 10.5205 12.6626C11.6616 13.3133 12.8028 13.9539 13.9539 14.6046C14.084 14.6747 14.2242 14.7547 14.3944 14.8448C14.3944 14.6947 14.3944 14.5946 14.3944 14.4945C14.3944 13.4935 14.3944 12.4825 14.3944 11.4815C14.3944 11.061 14.5145 10.5605 14.3343 10.2302C14.1541 9.9199 13.6536 9.78977 13.2933 9.58957C12.3023 9.04903 11.3213 8.49848 10.3103 7.92791ZM15.6256 14.8148C15.6957 14.7948 15.7257 14.7948 15.7457 14.7848C17.017 14.0741 18.2882 13.3633 19.5595 12.6326C19.6496 12.5826 19.7197 12.4024 19.7197 12.2823C19.7297 10.9309 19.7297 9.56955 19.7297 8.20819C19.7297 8.12811 19.7197 8.03802 19.7097 7.9179C18.3683 8.67866 17.057 9.40939 15.7557 10.1501C15.6957 10.1902 15.6356 10.2903 15.6356 10.3704C15.6256 11.8418 15.6256 13.3133 15.6256 14.8148ZM10.9509 6.85684C12.2822 7.60759 13.5835 8.33832 14.8949 9.05904C14.9749 9.09908 15.1251 9.05904 15.2252 9.00899C16.4264 8.33832 17.6276 7.66765 18.8188 6.99698C18.8888 6.95694 18.9589 6.90689 19.059 6.83682C17.7277 6.08607 16.4264 5.35534 15.1251 4.63462C15.045 4.59458 14.8848 4.62461 14.7948 4.67466C13.5835 5.34533 12.3723 6.02601 11.1711 6.70669C11.1011 6.74673 11.041 6.79678 10.9509 6.85684Z" fill="white"/>
<path d="M11.7817 22.7527C12.2422 23.2833 12.6827 23.7838 13.1231 24.2743C13.5435 24.7547 13.5836 25.2052 13.2332 25.5255C12.8628 25.8558 12.4324 25.7657 11.9819 25.2552C11.5015 24.7147 11.021 24.1641 10.5405 23.6136C10.4604 23.5235 10.3703 23.4334 10.2202 23.2733C10.2202 23.8538 10.2202 24.3543 10.2202 24.8448C10.2202 25.3754 9.93991 25.7057 9.48946 25.7057C9.029 25.7157 8.71869 25.3754 8.71869 24.8348C8.71869 22.9029 8.71869 20.971 8.71869 19.039C8.71869 18.4685 9.01899 18.1782 9.57955 18.1782C10.1301 18.1682 10.6806 18.1581 11.2312 18.1882C12.3423 18.2582 13.2833 19.0891 13.4434 20.1101C13.6136 21.2012 13.063 22.1722 11.992 22.6426C11.9419 22.6827 11.8818 22.7027 11.7817 22.7527ZM10.2502 21.3513C10.6306 21.3313 10.9809 21.3413 11.3213 21.2813C11.7217 21.2112 11.9719 20.8909 11.9719 20.5205C11.9719 20.1501 11.7417 19.8298 11.3313 19.7497C10.9809 19.6897 10.6206 19.6997 10.2502 19.6797C10.2502 20.2602 10.2502 20.7607 10.2502 21.3513Z" fill="white"/>
<path d="M21.2913 24.8949C21.2913 25.2953 21.071 25.5956 20.7407 25.6857C20.4104 25.7758 20.04 25.6256 19.8798 25.3053C19.7497 25.0451 19.6496 24.7748 19.5595 24.5045C19.4995 24.3043 19.3994 24.2242 19.1892 24.2242C18.4985 24.2342 17.8078 24.2142 17.1171 24.2443C16.997 24.2443 16.8368 24.3744 16.7767 24.4845C16.6466 24.7147 16.5866 24.975 16.4865 25.2152C16.3063 25.6256 15.9159 25.8058 15.5355 25.6657C15.1351 25.5255 14.9249 25.1151 15.0851 24.6847C15.8258 22.7027 16.5866 20.7207 17.3473 18.7488C17.4875 18.3884 17.7677 18.1882 18.1581 18.1782C18.5585 18.1682 18.8588 18.3784 19.009 18.7488C19.7597 20.7207 20.5005 22.6827 21.2412 24.6547C21.2612 24.7548 21.2812 24.8549 21.2913 24.8949ZM18.1681 20.8108C17.9079 21.5015 17.6877 22.0821 17.4674 22.6927C17.9679 22.6927 18.4084 22.6927 18.8889 22.6927C18.6486 22.0721 18.4284 21.4915 18.1681 20.8108Z" fill="white"/>
</g>
<defs>
<clipPath id="clip0">
<rect width="30" height="30" fill="white"/>
</clipPath>
</defs>
</svg>
