<svg width="40" height="40" viewBox="0 0 40 40" fill="none" xmlns="http://www.w3.org/2000/svg">
<path d="M1.83343 4.3488C1.83343 2.96255 2.96255 1.83343 4.3488 1.83343H9.10006V0H4.3488C1.94522 0 0 1.94522 0 4.3488V9.10006H1.83343V4.3488Z" fill="white"/>
<path d="M35.6512 1.83343C37.0374 1.83343 38.1665 2.96255 38.1665 4.3488V9.10006H40V4.3488C40 1.9564 38.0547 0 35.6512 0H30.8999V1.83343H35.6512Z" fill="white"/>
<path d="M4.3488 38.1666C2.96255 38.1666 1.83343 37.0375 1.83343 35.6512V30.9H0V35.6512C0 38.0436 1.94522 40 4.3488 40H9.10006V38.1666H4.3488Z" fill="white"/>
<path d="M38.1665 35.6512C38.1665 37.0375 37.0374 38.1666 35.6512 38.1666H30.8999V40H35.6512C38.0436 40 40 38.0548 40 35.6512V30.9H38.1665V35.6512Z" fill="white"/>
</svg>
