<svg width="192" height="62" viewBox="0 0 192 62" fill="none" xmlns="http://www.w3.org/2000/svg">
<path fill-rule="evenodd" clip-rule="evenodd" d="M162.61 60.6922L175.367 1.2261H192L179.929 60.6922H162.61ZM113.48 21.2933C114.086 13.8958 117.194 8.50099 122.846 5.10877C128.498 1.71655 135.159 0 142.829 0C143.475 0 144.121 0 144.807 0.0408701C145.494 0.0817403 146.139 0.12261 146.785 0.163481C150.984 0.490442 154.779 1.59394 158.25 3.47396C161.722 5.35399 163.458 8.70534 163.539 13.4463C163.539 14.3045 163.458 15.2446 163.337 16.2254C163.216 17.2063 162.974 18.269 162.651 19.3316L146.018 19.2498C146.139 18.9229 146.18 18.5959 146.22 18.269C146.261 17.942 146.261 17.6559 146.261 17.3698C146.301 15.4489 145.655 14.0593 144.323 13.2419C142.95 12.3837 141.416 11.975 139.68 11.975C139.519 11.975 139.357 11.975 139.196 11.975C139.034 11.975 138.832 11.975 138.631 11.975C136.854 12.1384 135.199 12.7515 133.625 13.8141C132.091 14.8767 131.324 16.3072 131.324 18.0237C131.324 19.6585 132.898 21.1299 136.007 22.4377C139.115 23.7047 142.869 24.849 147.31 25.8299C150.943 26.6473 153.648 27.8734 155.465 29.4265C157.282 31.0204 158.493 32.6961 159.139 34.4535C159.462 35.2709 159.704 36.1292 159.825 36.9466C159.946 37.8049 160.027 38.6223 160.027 39.3579C160.027 45.1615 157.483 50.3929 152.356 55.0112C147.229 59.6295 139.559 61.9591 129.345 61.9591C120.464 61.9591 114.691 60.4061 111.986 57.2591C109.282 54.1529 107.949 50.5972 107.949 46.592C107.949 46.1424 107.949 45.7337 107.99 45.2841C108.03 44.8345 108.03 44.4258 108.03 43.9763C108.07 43.5267 108.151 43.118 108.192 42.6684C108.232 42.2189 108.313 41.8102 108.353 41.3606L124.905 41.2788C124.864 41.6467 124.824 42.0145 124.824 42.3006C124.824 42.5867 124.824 42.8728 124.824 43.1589C124.824 45.2841 125.389 47.0415 126.52 48.3902C127.65 49.739 129.467 50.3929 131.97 50.3929C132.494 50.3929 133.181 50.3111 133.988 50.1885C134.795 50.0659 135.603 49.8616 136.41 49.5755C137.864 49.085 139.196 48.3494 140.367 47.3685C141.537 46.3876 142.143 45.0798 142.143 43.445C142.143 43.3223 142.143 43.1997 142.143 43.0771C142.143 42.9545 142.143 42.8319 142.143 42.7093C142.143 41.3197 141.134 40.1753 139.075 39.2762C137.016 38.3362 134.755 37.5188 132.252 36.824C130.678 36.3744 129.184 35.9657 127.69 35.5979C126.237 35.2301 125.026 34.8214 124.057 34.4535C124.017 34.4535 123.936 34.4535 123.855 34.4127C123.774 34.3718 123.694 34.3309 123.653 34.29C123.653 34.29 123.653 34.29 123.613 34.29C123.573 34.29 123.573 34.29 123.573 34.29C123.048 34.0857 122.483 33.8813 121.877 33.677C121.271 33.4726 120.666 33.2683 120.02 32.9822C118.405 32.2874 116.912 31.1022 115.499 29.4674C114.126 27.8326 113.44 25.1351 113.44 21.416V21.2933H113.48ZM54.015 60.6922L66.1664 1.2261H111.502L108.918 12.7924H80.8611L78.2774 24.4403H104.478L101.975 36.7831H75.7744L73.1908 48.3494H101.975L99.3909 60.6513H54.015V60.6922ZM5.53053 21.2933C6.13608 13.8958 9.24457 8.50099 14.8964 5.10877C20.5482 1.71655 27.2092 0 34.8796 0C35.5255 0 36.1714 0 36.8577 0.0408701C37.544 0.0817403 38.1899 0.12261 38.8358 0.163481C42.9939 0.490442 46.8291 1.59394 50.2606 3.47396C53.7324 5.35399 55.4683 8.70534 55.549 13.4463C55.549 14.3045 55.4683 15.2446 55.3472 16.2254C55.2261 17.2063 54.9839 18.269 54.6609 19.3316L38.0284 19.2498C38.1495 18.9229 38.1899 18.5959 38.2303 18.269C38.2706 17.942 38.2706 17.6559 38.2706 17.3698C38.311 15.4489 37.6651 14.0593 36.3329 13.2419C35.0007 12.3837 33.4262 11.975 31.6903 11.975C31.5288 11.975 31.3674 11.975 31.2059 11.975C31.0444 11.975 30.8426 11.975 30.6407 11.975C28.8644 12.1384 27.2092 12.7515 25.6348 13.8141C24.1008 14.8767 23.3337 16.3072 23.3337 18.0237C23.3337 19.6585 24.9082 21.1299 28.0167 22.4377C31.1251 23.7047 34.8796 24.849 39.3203 25.8299C42.9536 26.6473 45.6584 27.8734 47.475 29.4265C49.2917 31.0204 50.5028 32.6961 51.1487 34.4535C51.4717 35.2709 51.7139 36.1292 51.835 36.9466C51.9561 37.8049 52.0368 38.6223 52.0368 39.3579C52.0368 45.1615 49.4935 50.3929 44.3665 55.0112C39.2395 59.6295 31.5692 61.9591 21.3556 61.9591C12.4742 61.9591 6.70126 60.4061 3.99647 57.2591C1.29167 54.1529 -0.0405407 50.5972 -0.0405407 46.592C-0.0405407 46.1424 -0.0405407 45.7337 -0.000170637 45.2841C0.0401994 44.8345 0.0401994 44.4258 0.0401994 43.9763C0.0805695 43.5267 0.16131 43.118 0.20168 42.6684C0.24205 42.2189 0.32279 41.8102 0.36316 41.3606L16.9149 41.2788C16.8745 41.6467 16.8341 42.0145 16.8341 42.3006C16.8341 42.5867 16.8341 42.8728 16.8341 43.1589C16.8341 45.2841 17.3993 47.0415 18.5297 48.3902C19.66 49.739 21.4767 50.3929 23.9796 50.3929C24.5045 50.3929 25.1907 50.3111 25.9981 50.1885C26.8055 50.0659 27.6129 49.8616 28.4204 49.5755C29.8737 49.085 31.2059 48.3494 32.3766 47.3685C33.5473 46.3876 34.1529 45.0798 34.1529 43.445C34.1529 43.3223 34.1529 43.1997 34.1529 43.0771C34.1529 42.9545 34.1529 42.8319 34.1529 42.7093C34.1529 41.3197 33.1436 40.1753 31.0848 39.2762C29.0259 38.3362 26.7652 37.5188 24.2622 36.824C22.7685 36.3744 21.2748 35.9657 19.7812 35.557C18.3278 35.1892 17.1167 34.7805 16.1479 34.4127C16.1075 34.4127 16.0267 34.4127 15.946 34.3718C15.8653 34.3309 15.7845 34.29 15.7442 34.2492C15.7442 34.2492 15.7442 34.2492 15.7038 34.2492C15.6634 34.2492 15.6634 34.2492 15.6634 34.2492C15.1386 34.0448 14.5734 33.8405 13.9679 33.6361C13.3623 33.4318 12.7568 33.2274 12.1108 32.9413C10.496 32.2465 9.00235 31.0613 7.5894 29.4265C6.21682 27.7917 5.53053 25.0943 5.53053 21.3751V21.2933Z" fill="#13A538"/>
</svg>
